<?xml version="1.0" encoding="UTF-8"?>
<svg width="136px" height="22px" viewBox="0 0 136 22" version="1.1" xmlns="http://www.w3.org/2000/svg" xmlns:xlink="http://www.w3.org/1999/xlink">
    <!-- Generator: Sketch 46.2 (44496) - http://www.bohemiancoding.com/sketch -->
    <title>Group 4</title>
    <desc>Created with Sketch.</desc>
    <defs></defs>
    <g id="Prototype" stroke="none" stroke-width="1" fill="none" fill-rule="evenodd">
        <g id="04" transform="translate(-180.000000, -857.000000)" fill="#FFC107">
            <g id="Listing-Header-Info" transform="translate(174.000000, 665.000000)">
                <g id="Group-2" transform="translate(6.000000, 192.000000)">
                    <g id="Group-4">
                        <polygon id="Star" points="12 18 4.94657697 21.7082039 6.2936609 13.854102 0.587321804 8.29179607 8.47328849 7.14589803 12 0 15.5267115 7.14589803 23.4126782 8.29179607 17.7063391 13.854102 19.053423 21.7082039"></polygon>
                        <polygon id="Star-Copy-2" points="68 18 60.946577 21.7082039 62.2936609 13.854102 56.5873218 8.29179607 64.4732885 7.14589803 68 0 71.5267115 7.14589803 79.4126782 8.29179607 73.7063391 13.854102 75.053423 21.7082039"></polygon>
                        <polygon id="Star-Copy" points="40 18 32.946577 21.7082039 34.2936609 13.854102 28.5873218 8.29179607 36.4732885 7.14589803 40 0 43.5267115 7.14589803 51.4126782 8.29179607 45.7063391 13.854102 47.053423 21.7082039"></polygon>
                        <polygon id="Star-Copy-3" points="96 18 88.946577 21.7082039 90.2936609 13.854102 84.5873218 8.29179607 92.4732885 7.14589803 96 0 99.5267115 7.14589803 107.412678 8.29179607 101.706339 13.854102 103.053423 21.7082039"></polygon>
                        <polygon id="Star-Copy-4" points="124 18 116.946577 21.7082039 118.293661 13.854102 112.587322 8.29179607 120.473288 7.14589803 124 0 127.526712 7.14589803 135.412678 8.29179607 129.706339 13.854102 131.053423 21.7082039"></polygon>
                    </g>
                </g>
            </g>
        </g>
    </g>
</svg>